<?xml version="1.0" encoding="iso-8859-1"?>
<!-- Generator: Adobe Illustrator 19.0.0, SVG Export Plug-In . SVG Version: 6.00 Build 0)  -->
<svg version="1.1" id="Layer_1" xmlns="http://www.w3.org/2000/svg" xmlns:xlink="http://www.w3.org/1999/xlink" x="0px" y="0px"
	 viewBox="0 0 512.002 512.002" style="enable-background:new 0 0 512.002 512.002;" xml:space="preserve">
<path style="fill:#FFC843;" d="M324.618,421.989c0-37.897-30.722-68.62-68.62-68.62s-68.62,30.721-68.62,68.62
	c0,37.897,30.722,82.082,68.62,82.082S324.618,459.887,324.618,421.989z"/>
<path style="fill:#D49000;" d="M295.512,421.989c0-21.822-17.691-39.513-39.513-39.513s-39.514,17.691-39.514,39.513
	c0,21.823,17.691,52.975,39.514,52.975S295.512,443.813,295.512,421.989z"/>
<path style="opacity:0.2;enable-background:new    ;" d="M255.999,353.37c-37.897,0-68.62,30.721-68.62,68.62
	c0,5.207,0.584,10.53,1.682,15.844h133.876c1.098-5.312,1.682-10.637,1.682-15.844C324.618,384.092,293.897,353.37,255.999,353.37z"
	/>
<path style="fill:#D49000;" d="M87.792,396.139c0-6.309,3.915-14.835,8.699-18.948l62.489-53.716
	c4.784-4.112,8.698-2.315,8.698,3.993v71.23c0,6.309-3.915,14.835-8.698,18.948l-62.489,53.716
	c-4.785,4.112-8.699,2.315-8.699-3.993V396.139z"/>
<path style="opacity:0.3;enable-background:new    ;" d="M158.981,323.476l-18.163,15.613v94.172l18.163-15.612
	c4.784-4.112,8.698-12.64,8.698-18.948v-71.232C167.679,321.161,163.766,319.364,158.981,323.476z"/>
<path style="fill:#D49000;" d="M424.206,396.139c0-6.309-3.915-14.835-8.699-18.948l-62.489-53.716
	c-4.784-4.112-8.698-2.315-8.698,3.993v71.23c0,6.309,3.915,14.835,8.698,18.948l62.489,53.716c4.785,4.112,8.699,2.315,8.699-3.993
	V396.139z"/>
<path style="opacity:0.3;enable-background:new    ;" d="M353.017,323.476l18.163,15.613v94.172l-18.163-15.612
	c-4.784-4.112-8.698-12.64-8.698-18.948v-71.232C344.319,321.161,348.233,319.364,353.017,323.476z"/>
<path style="fill:#0055B8;" d="M153.915,132.958v246.409h204.168V132.958c0-56.379-78-125.029-102.083-125.029
	S153.915,76.578,153.915,132.958z"/>
<rect x="153.913" y="361.795" style="fill:#0082CA;" width="204.171" height="60.196"/>
<circle style="fill:#FFFFFF;" cx="256.004" cy="199.488" r="53.302"/>
<path style="fill:#D49000;" d="M255.999,7.929c-16.513,0-58.371,32.275-83.057,70.738h166.113
	C314.37,40.204,272.512,7.929,255.999,7.929z"/>
<g>
	<rect x="248.075" y="361.795" style="fill:#FFFFFF;" width="15.858" height="60.196"/>
	<rect x="191.347" y="361.795" style="fill:#FFFFFF;" width="15.858" height="60.196"/>
	<rect x="304.792" y="361.795" style="fill:#FFFFFF;" width="15.858" height="60.196"/>
</g>
<path style="fill:#1E252B;" d="M420.676,371.18l-54.664-46.988V132.958c0-36.188-27.65-71.329-44.133-89.056
	C302.219,22.758,273.217,0,255.999,0s-46.219,22.758-65.88,43.902c-16.482,17.726-44.133,52.868-44.133,89.056v191.234
	L91.325,371.18c-6.533,5.615-11.46,16.345-11.46,24.961v71.231c0,8.859,5.018,12.119,7.175,13.11c0.958,0.44,2.62,1.015,4.76,1.015
	c2.685,0,6.122-0.905,9.861-4.119l55.209-47.457h22.985c1.787,18.088,9.499,37.11,21.392,52.226
	c15.147,19.252,34.593,29.856,54.753,29.856c40.396,0,72.299-42.484,76.156-82.082h22.974l55.21,47.458
	c3.739,3.213,7.175,4.118,9.86,4.118c2.14,0,3.804-0.575,4.76-1.015c2.158-0.991,7.175-4.251,7.175-13.11v-71.231
	C432.134,387.523,427.208,376.793,420.676,371.18z M145.986,418.361L95.721,461.57v-65.43c0-4.026,2.885-10.311,5.939-12.934
	l44.326-38.103V418.361z M255.999,15.858c11.269,0,44.097,24.04,67.822,54.881H188.178C211.903,39.898,244.73,15.858,255.999,15.858
	z M298.289,472.339c-12.076,15.35-27.095,23.803-42.29,23.803s-30.214-8.453-42.29-23.803
	c-9.745-12.387-16.149-27.758-17.899-42.421h120.378C314.439,444.581,308.034,459.952,298.289,472.339z M350.154,414.061h-188.31
	v-44.339h188.31V414.061z M350.154,353.864h-188.31V132.958c0-15.15,6.168-31.182,15.404-46.361h157.501
	c9.237,15.18,15.404,31.211,15.404,46.361v220.906H350.154z M416.277,461.57l-50.265-43.209v-73.259l44.327,38.103
	c3.052,2.623,5.938,8.909,5.938,12.934V461.57z"/>
<g>
</g>
<g>
</g>
<g>
</g>
<g>
</g>
<g>
</g>
<g>
</g>
<g>
</g>
<g>
</g>
<g>
</g>
<g>
</g>
<g>
</g>
<g>
</g>
<g>
</g>
<g>
</g>
<g>
</g>
</svg>
