<svg id="Layer_1" data-name="Layer 1" xmlns="http://www.w3.org/2000/svg" viewBox="0 0 250 250"><title>journey-icon4</title><path d="M229.69,98.71a16.35,16.35,0,0,0-9.06-27.89l-54.24-7.88a3.27,3.27,0,0,1-2.46-1.79L139.66,12a16.35,16.35,0,0,0-29.32,0L86.08,61.16a3.27,3.27,0,0,1-2.46,1.79L29.38,70.83a16.35,16.35,0,0,0-9.06,27.89L59.57,137a3.27,3.27,0,0,1,.94,2.89l-9.27,54A16.35,16.35,0,0,0,75,211.13l48.52-25.51a3.27,3.27,0,0,1,3,0L175,211.13a16.35,16.35,0,0,0,23.72-17.24l-9.27-54a3.27,3.27,0,0,1,.94-2.89Zm-53.08,43.37,9.27,54a3.27,3.27,0,0,1-4.74,3.45L132.61,174a16.35,16.35,0,0,0-15.22,0L68.88,199.55a3.27,3.27,0,0,1-4.74-3.45l9.27-54a16.34,16.34,0,0,0-4.7-14.47L29.45,89.35a3.27,3.27,0,0,1,1.81-5.58L85.5,75.89a16.35,16.35,0,0,0,12.31-8.94l24.26-49.15a3.27,3.27,0,0,1,5.86,0h0l24.26,49.15a16.34,16.34,0,0,0,12.31,8.94l54.24,7.88a3.27,3.27,0,0,1,1.81,5.58l-39.25,38.26A16.34,16.34,0,0,0,176.61,142.08Z"/><path d="M201.4,12a6.54,6.54,0,0,0-9.13,1.45L185.32,23a6.54,6.54,0,0,0,10.58,7.69l6.94-9.55A6.54,6.54,0,0,0,201.4,12Z"/><path d="M64.65,23l-6.94-9.55A6.54,6.54,0,1,0,47.13,21.1l6.94,9.55A6.54,6.54,0,1,0,64.65,23Z"/><path d="M25,149.61a6.54,6.54,0,0,0-8.24-4.2L5.57,149.06a6.54,6.54,0,1,0,4,12.44l11.23-3.65A6.54,6.54,0,0,0,25,149.61Z"/><path d="M125,222.22a6.54,6.54,0,0,0-6.54,6.54v11.81a6.54,6.54,0,1,0,13.08,0V228.76A6.54,6.54,0,0,0,125,222.22Z"/><path d="M244.43,149.07l-11.23-3.65a6.54,6.54,0,0,0-4,12.44l11.23,3.65a6.54,6.54,0,0,0,4-12.44Z"/></svg>