<svg id="Layer_1" data-name="Layer 1" xmlns="http://www.w3.org/2000/svg" viewBox="0 0 250 250"><title>journey-icon1</title><path d="M29.63,81.84H8a6,6,0,0,0,0,12H29.63a6,6,0,1,0,0-12Z"/><path d="M244,81.84H222.37a6,6,0,0,0,0,12H244a6,6,0,0,0,0-12Z"/><path d="M54.38,159.47a6,6,0,0,0-8.5,0L30.16,175.19a6,6,0,1,0,8.5,8.5L54.38,168A6,6,0,0,0,54.38,159.47Z"/><path d="M210.84,3a6,6,0,0,0-8.5,0L187.05,18.3a6,6,0,0,0,8.5,8.5L210.84,11.5A6,6,0,0,0,210.84,3Z"/><path d="M64.94,18.29,49.65,3a6,6,0,1,0-8.5,8.5L56.44,26.79a6,6,0,0,0,8.5-8.5Z"/><path d="M221.84,175.19l-15.67-15.67a6,6,0,0,0-8.5,8.5l15.67,15.67a6,6,0,1,0,8.5-8.5Z"/><path d="M126,17.56c-41.54,0-75.34,35.35-75.34,78.81,0,20.2,7.24,41.95,19.85,59.66,9.69,13.6,14.81,28.74,14.81,43.77v37.77a12,12,0,0,0,12,12h57.32a12,12,0,0,0,12-12V199.8c0-15,5.12-30.17,14.81-43.77,12.62-17.71,19.86-39.46,19.86-59.66C201.34,52.91,167.54,17.56,126,17.56Zm28.66,220H97.34v-7.86H126a6,6,0,1,0,0-12H97.34v-7.86h57.32v27.73ZM117.57,125.49l-8-17.16h32.92l-8,17.16a6,6,0,0,0-.55,2.15l-4.66,70.19h-6.43l-4.66-70.19A6,6,0,0,0,117.57,125.49Zm54.13,23.57c-10.73,15.06-16.59,31.88-17,48.77H141.26l4.53-68.27,11.56-24.7a6,6,0,0,0-5.44-8.56H100.09a6,6,0,0,0-5.44,8.55l11.56,24.7,4.53,68.27H97.31c-.42-16.89-6.29-33.71-17-48.77-11-15.49-17.63-35.19-17.63-52.69,0-36.83,28.41-66.79,63.33-66.79s63.33,30,63.33,66.79C189.33,113.87,182.74,133.57,171.7,149.06Z"/></svg>