<?xml version="1.0" encoding="UTF-8" standalone="no"?>
<svg width="162px" height="42px" viewBox="0 0 162 42" version="1.1" xmlns="http://www.w3.org/2000/svg" xmlns:xlink="http://www.w3.org/1999/xlink" xmlns:sketch="http://www.bohemiancoding.com/sketch/ns">
    <!-- Generator: Sketch 3.3.3 (12081) - http://www.bohemiancoding.com/sketch -->
    <title>Group</title>
    <desc>Created with Sketch.</desc>
    <defs></defs>
    <g id="Page-1" stroke="none" stroke-width="1" fill="none" fill-rule="evenodd" sketch:type="MSPage">
        <g id="website" sketch:type="MSArtboardGroup" transform="translate(-435.000000, -3608.000000)" fill="#1A1A1A">
            <g id="//-Investors" sketch:type="MSLayerGroup" transform="translate(360.000000, 3216.000000)">
                <g id="idg-logo" transform="translate(75.000000, 392.000000)" sketch:type="MSShapeGroup">
                    <g id="Group">
                        <path d="M30.2402686,0.897171358 C25.774851,0.897171358 21.656899,2.3386697 18.2898171,4.75264156 L0.706764487,4.75264156 L0.706764487,5.11624338 L17.7680807,5.11624338 L29.6862599,5.11624338 L42.7070778,5.11624338 C41.6216511,4.28684396 40.440483,3.57470075 39.195846,2.97228353 L59.9609524,2.97228353 L59.9609524,2.60115149 L38.4331428,2.60115149 C35.9223539,1.5049673 33.1512347,0.897171358 30.2402686,0.897171358 L30.2402686,0.897171358 Z" id="Shape"></path>
                        <path d="M30.977154,36.9227968 L16.7095476,36.9227968 C24.2150207,43.474084 35.622221,43.6300671 43.3073435,37.2896258 L59.9609524,37.2896258 L59.9609524,36.9227968 L43.7656109,36.9227968 L30.977154,36.9227968 L30.977154,36.9227968 Z" id="Shape"></path>
                        <path d="M30.977154,7.85293874 L14.8355998,7.85293874 C14.0094276,8.78883692 13.2800724,9.81187045 12.6324739,10.889767 L0.706764487,10.889767 L0.706764487,11.252293 L12.3979615,11.252293 L29.6851842,11.252293 L48.0793485,11.252293 C47.4607951,10.1743965 46.735743,9.17072641 45.9386159,8.22407078 L59.9598767,8.22407078 L59.9598767,7.85293874 L45.647089,7.85293874 L30.977154,7.85293874 L30.977154,7.85293874 Z" id="Shape"></path>
                        <path d="M30.977154,13.4521916 L11.2985501,13.4521916 C10.8090861,14.615072 10.4314996,15.8252852 10.1582603,17.0849826 L0.706764487,17.0849826 L0.706764487,17.4561147 L10.079731,17.4561147 L29.6862599,17.4561147 L50.4029578,17.4561147 C50.1544607,16.1964172 49.7876316,14.9851283 49.321834,13.8233237 L59.9609524,13.8233237 L59.9609524,13.4521916 L49.1798357,13.4521916 L30.977154,13.4521916 L30.977154,13.4521916 Z" id="Shape"></path>
                        <path d="M29.6862599,29.9175451 L48.9689897,29.9175451 C49.5660281,28.6105149 50.0135381,27.2174251 50.3244284,25.770548 L59.9566494,25.770548 L59.9566494,25.3983402 L50.4094123,25.3983402 C50.4094123,25.39081 50.4126395,25.386507 50.4126395,25.3832798 L10.0657463,25.3832798 C10.3432885,26.8387628 10.784344,28.2307769 11.3534131,29.5496403 L0.706764487,29.5496403 L0.706764487,29.9164694 L11.5093961,29.9164694 L29.6862599,29.9164694 L29.6862599,29.9175451 Z" id="Shape"></path>
                        <path d="M30.977154,31.0567591 L12.0655563,31.0567591 C13.0283481,32.871541 14.2611519,34.5131279 15.7015745,35.9535505 L0.706764487,35.9535505 L0.706764487,36.3160766 L16.0533431,36.3160766 L29.6851842,36.3160766 L44.4196639,36.3160766 C45.9160252,34.8907144 47.1864801,33.23837 48.1976805,31.4278911 L59.9598767,31.4278911 L59.9598767,31.0567591 L48.4139052,31.0567591 L30.977154,31.0567591 L30.977154,31.0567591 Z" id="Shape"></path>
                        <path d="M30.977154,19.5882413 L9.77206788,19.5882413 C9.65803891,20.8662264 9.66341763,22.1399085 9.78712831,23.4178936 L0.706764487,23.4178936 L0.706764487,23.7890257 L9.82047641,23.7890257 L29.6894872,23.7890257 L50.6568336,23.7890257 C50.7999077,22.5078133 50.8160439,21.2384342 50.7203026,19.9561461 L59.9598767,19.9561461 L59.9598767,19.5893171 L50.7020149,19.5893171 L30.977154,19.5893171 L30.977154,19.5882413 Z" id="Shape"></path>
                        <path d="M64.1445248,2.63449959 L64.1445248,4.33417674 C65.3536623,4.35354015 68.6680327,3.95121151 69.0994065,5.65734313 C69.4533266,7.06011465 69.5436892,13.7168249 69.5953249,20.5757752 C69.6555666,28.3996689 69.6114611,36.5064834 68.8950149,37.7005604 C68.0785244,38.9269098 65.3213899,38.5794441 64.1434491,38.600959 L64.1434491,40.2920302 L72.3277173,40.111305 C73.5088853,40.111305 75.9820232,40.1736983 79.7417521,40.2920302 L79.7417521,38.600959 C78.505721,38.5783684 75.2279259,38.989303 74.7890219,37.2519748 C74.3985265,35.7072049 74.2576039,28.0769454 74.2522252,20.513382 C74.2468464,13.4037831 74.3425877,6.32645654 74.991262,5.22596937 C75.8281916,4.00499876 78.5530538,4.3524644 79.7428278,4.33310099 L79.7428278,2.63342384 C74.5351461,2.82490646 69.3532823,2.82813369 64.1445248,2.63449959 L64.1445248,2.63449959 Z" id="Shape"></path>
                        <path d="M111.522488,4.2352082 C107.080736,2.37847227 102.101113,2.53337955 97.3818191,2.6205149 C92.2117885,2.71518046 87.0600455,2.82060348 81.8910906,2.63557533 L81.8910906,4.33525248 C83.1798332,4.34600993 85.9251345,4.03511962 86.26507,5.77029636 C86.7900335,8.42631084 86.6125356,11.3512616 86.6125356,14.0481544 L86.6125356,24.8583162 C86.6125356,29.0386614 86.535082,33.2717181 86.1607227,37.4348514 C85.4787003,37.9124822 84.6267103,38.444976 83.6165857,39.0248026 L83.6165857,40.2941817 C93.8673601,39.8445203 106.088899,42.659745 114.333409,34.9584863 C123.109337,26.758082 124.025872,9.49237417 111.522488,4.2352082 C108.881534,3.13041805 114.154836,5.34107409 111.522488,4.2352082 L111.522488,4.2352082 Z M114.373212,27.2733638 C111.488064,37.4090335 100.915642,38.9871515 91.8116113,37.4090335 C91.720173,35.4468746 91.6674615,33.8397115 91.6534768,32.5875443 L91.5717202,24.369928 L91.5717202,13.79643 L91.6803704,9.95386879 C91.7126428,7.742137 91.7610513,6.2059731 91.8126871,5.3389226 C97.6980882,4.46541763 105.102441,4.06846772 110.089595,7.92931664 C115.754469,12.3129776 116.18907,20.8941958 114.373212,27.2733638 L114.373212,27.2733638 Z" id="Shape"></path>
                        <path d="M161.372512,26.6644921 L161.213302,25.39081 C159.532988,25.5123692 157.893553,25.5758382 156.284238,25.5758382 L148.008532,25.39081 L148.008532,27.0087305 C149.588801,27.0549876 151.260509,27.015185 152.820339,27.3131664 C154.631894,27.6703137 154.347897,29.0935244 154.347897,30.6425973 L154.347897,33.5869114 C154.347897,35.1445902 154.268292,36.2751983 154.108006,36.98519 C142.568489,43.0513162 129.744533,34.2431159 129.074344,21.9591834 C128.738711,15.7650435 130.925701,9.02765232 136.524954,5.7616904 C141.84021,2.66784768 148.387194,3.22185637 153.924054,5.33569536 C154.968602,5.84775 155.724851,6.42542508 156.205709,7.0611904 C156.527357,7.76042467 156.659673,8.49408278 156.60481,9.26108899 L156.739279,12.286084 L158.352896,12.286084 C158.58203,9.6053274 158.7563,6.90090439 159.519004,4.30513162 C151.741367,2.12567219 143.235451,0.425995033 135.4363,3.53489818 C127.893175,6.55559023 123.311577,13.7146734 123.311577,21.7289739 C123.311577,29.8508489 127.770541,36.7797227 135.475026,39.6110836 C143.13971,42.4284599 151.919941,40.9310228 159.388839,38.2276755 C158.987586,34.7551705 158.998343,31.3009532 159.388839,27.829524 L161.372512,26.6644921 L161.372512,26.6644921 Z" id="Shape"></path>
                    </g>
                </g>
            </g>
        </g>
    </g>
</svg>