<?xml version="1.0" encoding="UTF-8" standalone="no"?>
<svg width="162px" height="43px" viewBox="0 0 162 43" version="1.1" xmlns="http://www.w3.org/2000/svg" xmlns:xlink="http://www.w3.org/1999/xlink" xmlns:sketch="http://www.bohemiancoding.com/sketch/ns">
    <!-- Generator: Sketch 3.3.3 (12081) - http://www.bohemiancoding.com/sketch -->
    <title>Benchmark_Capital</title>
    <desc>Created with Sketch.</desc>
    <defs></defs>
    <g id="Page-1" stroke="none" stroke-width="1" fill="none" fill-rule="evenodd" sketch:type="MSPage">
        <g id="website" sketch:type="MSArtboardGroup" transform="translate(-432.000000, -3419.000000)">
            <g id="//-Investors" sketch:type="MSLayerGroup" transform="translate(360.000000, 3216.000000)">
                <g id="=-Logos" transform="translate(53.000000, 124.000000)" sketch:type="MSShapeGroup">
                    <g id="Benchmark_Capital" transform="translate(19.000000, 79.000000)">
                        <path d="M2.4310021,37.1096283 L2.4310021,41.2046272 L6.52618489,41.2046272 L6.52618489,39.7967127 L8.06183245,40.1801877 L8.06183245,40.9480575 C8.06183245,42.228147 7.67835738,42.483797 6.52618489,42.483797 L2.55947085,42.483797 C1.27974922,42.483797 0.895354536,42.228147 0.895354536,40.9480575 L0.895354536,37.494023 C0.895354536,36.2139335 1.27974922,35.9582835 2.55947085,35.9582835 L6.52618489,35.9582835 C7.67835738,35.9582835 8.06183245,36.2139335 8.06183245,37.494023 L8.06183245,38.1340677 L6.52618489,38.3887982 L6.52618489,37.1096283 L2.4310021,37.1096283 L2.4310021,37.1096283 Z" id="Shape" fill="#154F7E"></path>
                        <path d="M30.7115719,35.9582835 L32.1187507,35.9582835 L35.9579156,42.483797 L34.1663421,42.483797 L33.3984723,41.0768021 L29.3043011,41.0768021 L28.5364314,42.483797 L27.0007838,42.483797 L30.7115719,35.9582835 L30.7115719,35.9582835 Z M32.7590713,39.9245377 L31.3509729,37.2374533 L29.9437021,39.9245377 L32.7590713,39.9245377 L32.7590713,39.9245377 Z" id="Shape" fill="#154F7E"></path>
                        <path d="M53.2328702,35.9582835 L58.8636086,35.9582835 C59.8874043,35.9582835 60.2708794,36.3426781 60.2708794,37.2374533 L60.2708794,38.6444482 C60.2708794,39.5410626 59.8874043,39.9245377 58.8636086,39.9245377 L54.6409686,39.9245377 L54.6409686,42.483797 L53.2328702,42.483797 L53.2328702,35.9582835 L53.2328702,35.9582835 Z M54.6409686,37.1096283 L54.6409686,38.7731928 L58.0958308,38.7731928 C58.6076826,38.7731928 58.8636086,38.7731928 58.8636086,38.2618927 L58.8636086,37.6209284 C58.8636086,37.1096283 58.6076826,37.1096283 58.0958308,37.1096283 L54.6409686,37.1096283 L54.6409686,37.1096283 Z" id="Shape" fill="#154F7E"></path>
                        <path d="M79.977728,35.9582835 L81.5133756,35.9582835 L81.5133756,42.483797 L79.977728,42.483797 L79.977728,35.9582835 L79.977728,35.9582835 Z" id="Shape" fill="#154F7E"></path>
                        <path d="M106.210642,42.483797 L104.802728,42.483797 L104.802728,37.1096283 L101.731249,37.1096283 L101.731249,35.9582835 L109.281202,35.9582835 L109.281202,37.1096283 L106.210642,37.1096283 L106.210642,42.483797 L106.210642,42.483797 Z" id="Shape" fill="#154F7E"></path>
                        <path d="M130.523146,35.9582835 L132.058886,35.9582835 L135.76949,42.483797 L134.106845,42.483797 L133.338975,41.0768021 L129.115232,41.0768021 L128.347362,42.483797 L126.812542,42.483797 L130.523146,35.9582835 L130.523146,35.9582835 Z M132.698011,39.9245377 L131.291016,37.2374533 L129.755276,39.9245377 L132.698011,39.9245377 L132.698011,39.9245377 Z" id="Shape" fill="#154F7E"></path>
                        <path d="M154.83657,35.9582835 L156.372309,35.9582835 L156.372309,41.2046272 L161.362083,41.2046272 L161.362083,42.483797 L154.83657,42.483797 L154.83657,35.9582835 L154.83657,35.9582835 Z" id="Shape" fill="#154F7E"></path>
                        <path d="M6.52618489,0.384302723 C10.6212481,0.384302723 12.7962967,1.40809842 12.7962967,4.35101676 C12.7962967,6.65453409 11.1331,8.3177308 8.95807901,8.95805142 C11.772501,9.0855086 14.0760183,10.8771741 14.0760183,13.6925433 C14.0760183,17.4033314 11.2606491,18.9389789 7.29396269,18.9389789 L0,18.9389789 L0,18.2986583 C2.30354492,18.0427324 2.17507617,18.1711092 2.17507617,15.6116659 L2.17507617,3.71069614 C2.17507617,1.15217249 2.30354492,1.40809842 0,1.02370374 L0,0.384302723 L6.52618489,0.384302723 L6.52618489,0.384302723 Z M4.86298818,8.82958267 L6.78211082,8.82958267 C8.31775839,8.82958267 10.1093043,7.93333612 10.1093043,4.86286863 C10.1093043,2.17504858 8.82961026,1.15217249 6.27016699,1.15217249 L4.86298818,1.15217249 L4.86298818,8.82958267 L4.86298818,8.82958267 Z M4.86298818,15.099814 C4.86298818,17.4033314 5.24646326,18.1711092 7.54988863,18.1711092 C9.85337837,18.1711092 11.0047232,16.6354616 11.0047232,14.0760183 C11.0047232,10.7487053 8.95807901,9.72500158 6.52618489,9.72500158 L4.86298818,9.72500158 L4.86298818,15.099814 L4.86298818,15.099814 Z" id="Shape" fill="#154F7E"></path>
                        <path d="M14.2044871,18.2986583 C16.6354616,18.0427324 16.5070848,18.1711092 16.5070848,15.6116659 L16.5070848,3.71069614 C16.5070848,1.15217249 16.6354616,1.40809842 14.2044871,1.02370374 L14.2044871,0.384302723 L26.1045372,0.384302723 L26.1045372,4.6069427 L25.4651362,4.6069427 C25.2092103,2.68690045 24.5688897,1.15217249 22.649767,1.15217249 L19.0665281,1.15217249 L19.0665281,8.82958267 L21.3700454,8.82958267 C23.0331502,8.82958267 23.6734708,8.18926205 23.8010199,6.52606534 L24.4413405,6.52606534 L24.4413405,12.1568957 L23.8010199,12.1568957 C23.6734708,10.6212481 23.1616189,9.72500158 21.3700454,9.72500158 L19.0665281,9.72500158 L19.0665281,15.6116659 C19.0665281,17.9151832 20.0903238,18.1711092 22.5212983,18.1711092 C26.3604632,18.1711092 26.232914,17.0189367 27.3842589,14.2043951 L28.1521286,14.2043951 L27.2567097,18.9389789 L14.2044871,18.9389789 L14.2044871,18.2986583 L14.2044871,18.2986583 Z" id="Shape" fill="#154F7E"></path>
                        <path d="M45.2994421,18.9389789 C41.0768021,13.9484692 36.7257854,8.70203352 32.3747686,3.583147 L32.3747686,15.35574 C32.3747686,15.9960606 32.5031454,16.3795357 32.5031454,16.7630107 C32.7590713,17.7868064 33.6544902,18.1711092 35.3185146,18.2986583 L35.3185146,18.9389789 L28.7915297,18.9389789 L28.7915297,18.2986583 C30.0712513,18.1711092 30.9674978,17.7868064 31.094955,16.7630107 C31.2234238,16.3795357 31.3509729,15.9960606 31.3509729,15.35574 L31.3509729,2.8153692 C30.5831032,1.91912264 29.6877762,1.02370374 28.1521286,1.02370374 L28.1521286,0.384302723 L33.0149973,0.384302723 C36.9817113,5.11888652 41.0768021,10.1093043 45.0435162,14.8438881 L45.1710653,14.8438881 L45.1710653,3.96662208 C45.1710653,3.45477021 45.0435162,2.94374599 44.9151394,2.55944326 C44.7875902,1.53564757 43.8922633,1.15217249 42.228147,1.02370374 L42.228147,0.384302723 L48.7543043,0.384302723 L48.7543043,1.02370374 C47.4745826,1.15217249 46.5791637,1.53564757 46.4507869,2.55944326 C46.3232378,2.94374599 46.194861,3.45477021 46.194861,3.96662208 L46.194861,18.9389789 L45.2994421,18.9389789 L45.2994421,18.9389789 Z" id="Shape" fill="#154F7E"></path>
                        <path d="M65.2613891,14.2043951 L64.4944389,17.5307885 C64.4944389,18.1711092 63.9816675,18.2986583 63.2147173,18.4270351 C62.1909216,18.8105102 60.3993481,19.322454 58.0958308,19.322454 C52.5934692,19.322454 47.7305086,16.6354616 47.7305086,9.59745243 C47.7305086,5.5023616 51.1861984,0 58.3517567,0 C60.9112,0 62.0625448,0.511851868 63.4706432,0.895326947 C64.1100442,1.15217249 64.4944389,1.53564757 64.4944389,2.04749943 L64.4944389,5.37481246 L63.7265692,5.37481246 C63.7265692,3.32722106 62.3184707,1.02370374 58.0958308,1.02370374 C53.105321,1.02370374 50.8018037,4.6069427 50.6734269,9.3415265 C50.6734269,14.5878702 53.105321,18.2986583 58.4793059,18.2986583 C62.0625448,18.2986583 63.7265692,16.3795357 64.6219881,14.2043951 L65.2613891,14.2043951 L65.2613891,14.2043951 Z" id="Shape" fill="#154F7E"></path>
                        <path d="M69.8683318,15.6116659 C69.8683318,18.1711092 69.7408746,18.0427324 72.1718491,18.2986583 L72.1718491,18.9389789 L65.0062908,18.9389789 L65.0062908,18.2986583 C67.4373573,18.0427324 67.3088885,18.1711092 67.3088885,15.6116659 L67.3088885,3.71069614 C67.3088885,1.15217249 67.4373573,1.40809842 65.0062908,1.02370374 L65.0062908,0.384302723 L72.1718491,0.384302723 L72.1718491,1.02370374 C69.7408746,1.40809842 69.8683318,1.15217249 69.8683318,3.71069614 L69.8683318,8.3177308 L79.2098583,8.3177308 L79.2098583,3.71069614 C79.2098583,1.15217249 79.338327,1.40809842 76.9064329,1.02370374 L76.9064329,0.384302723 L84.0732787,0.384302723 L84.0732787,1.02370374 C81.6409248,1.40809842 81.7693015,1.15217249 81.7693015,3.71069614 L81.7693015,15.6116659 C81.7693015,18.1711092 81.6409248,18.0427324 84.0732787,18.2986583 L84.0732787,18.9389789 L76.9064329,18.9389789 L76.9064329,18.2986583 C79.338327,18.0427324 79.2098583,18.1711092 79.2098583,15.6116659 L79.2098583,9.3415265 L69.8683318,9.3415265 L69.8683318,15.6116659 L69.8683318,15.6116659 Z" id="Shape" fill="#154F7E"></path>
                        <path d="M89.8309225,4.6069427 L89.8309225,15.35574 C89.8309225,15.9960606 89.9587475,16.3795357 89.9587475,16.7630107 C90.0874921,17.7868064 90.9822673,18.1711092 92.2623568,18.2986583 L92.2623568,18.9389789 L86.2481433,18.9389789 L86.2481433,18.2986583 C87.5273132,18.1711092 88.423008,17.7868064 88.5517526,16.7630107 C88.5517526,16.3795357 88.678658,15.9960606 88.678658,15.35574 L88.678658,3.32722106 C88.1673579,2.04749943 86.8872685,1.02370374 85.6080986,1.02370374 L85.6080986,0.384302723 L90.5987923,0.384302723 L98.0209202,15.2272712 L105.698698,0.384302723 L110.049347,0.384302723 L110.049347,1.02370374 C108.001388,1.02370374 107.362263,2.17504858 107.362263,3.83916489 L107.362263,15.6116659 C107.362263,18.1711092 107.234438,18.0427324 109.665872,18.2986583 L109.665872,18.9389789 L102.499394,18.9389789 L102.499394,18.2986583 C104.930828,18.0427324 104.803003,18.1711092 104.803003,15.6116659 L104.803003,4.47856591 L104.675178,4.47856591 L97.5087005,19.0665281 L97.1252254,19.0665281 L89.8309225,4.6069427 L89.8309225,4.6069427 Z" id="Shape" fill="#154F7E"></path>
                        <path d="M114.784115,12.7962967 L113.504025,16.3795357 C113.248375,17.4033314 113.759675,18.2986583 114.91194,18.2986583 L114.91194,18.9389789 L110.049071,18.9389789 L110.049071,18.2986583 C110.816941,18.2986583 111.584811,17.7868064 111.968286,16.8913875 C113.119631,14.5878702 116.19111,5.88666433 118.366894,0 L119.901714,0 C121.694023,5.37481246 124.381108,13.5641665 125.276802,15.9960606 C125.915927,17.4033314 126.300322,18.2986583 127.451667,18.2986583 L127.451667,18.9389789 L121.309628,18.9389789 L121.309628,18.2986583 C122.973193,18.2986583 123.101018,17.4033314 122.717543,16.2519865 L121.565279,12.7962967 L114.784115,12.7962967 L114.784115,12.7962967 Z M121.181803,11.772501 L118.366894,3.19884428 L115.16759,11.772501 L121.181803,11.772501 L121.181803,11.772501 Z" id="Shape" fill="#154F7E"></path>
                        <path d="M127.836062,0.384302723 L135.641665,0.384302723 C138.329669,0.384302723 141.015833,1.7915735 141.015833,4.86286863 C141.015833,7.67832979 139.353188,9.46898368 137.305229,10.3652302 L139.864489,14.2043951 C141.144578,16.2519865 142.680318,18.0427324 143.576012,18.683053 L143.576012,18.9389789 L140.888928,18.9389789 C139.353188,18.9389789 138.456574,16.1236097 135.25819,10.7487053 L132.698011,10.7487053 L132.698011,15.6116659 C132.698011,18.1711092 132.571105,18.0427324 135.00162,18.2986583 L135.00162,18.9389789 L127.836062,18.9389789 L127.836062,18.2986583 C130.267496,18.0427324 130.138751,18.1711092 130.138751,15.6116659 L130.138751,3.71069614 C130.138751,1.15217249 130.267496,1.40809842 127.836062,1.02370374 L127.836062,0.384302723 L127.836062,0.384302723 Z M132.698011,9.85337837 L134.874715,9.85337837 C137.305229,9.85337837 138.329669,8.06180487 138.329669,5.11888652 C138.329669,2.17504858 136.666104,1.15217249 134.74597,1.15217249 L132.698011,1.15217249 L132.698011,9.85337837 L132.698011,9.85337837 Z" id="Shape" fill="#154F7E"></path>
                        <path d="M147.286617,3.71069614 C147.286617,1.15217249 147.414442,1.40809842 144.983007,1.02370374 L144.983007,0.384302723 L152.149485,0.384302723 L152.149485,1.02370374 C149.718051,1.40809842 149.845876,1.15217249 149.845876,3.71069614 L149.845876,8.95805142 C150.741571,8.82958267 151.252871,8.57365673 151.893835,7.93333612 L157.268004,2.43097451 C158.419349,1.27972163 156.755784,1.02370374 155.860089,1.02370374 L155.860089,0.384302723 L160.722958,0.384302723 L160.722958,1.02370374 C159.955088,1.40809842 159.059393,2.43097451 157.908049,3.45477021 L152.405135,8.95805142 C155.220045,11.9009698 159.187218,17.0189367 161.618653,18.5545842 L161.618653,18.9389789 L158.931568,18.9389789 C157.908049,18.9389789 157.268004,18.0427324 156.115739,16.6354616 L150.485001,9.59745243 L149.845876,9.59745243 L149.845876,15.6116659 C149.845876,18.1711092 149.718051,18.0427324 152.149485,18.2986583 L152.149485,18.9389789 L144.983007,18.9389789 L144.983007,18.2986583 C147.414442,18.0427324 147.286617,18.1711092 147.286617,15.6116659 L147.286617,3.71069614 L147.286617,3.71069614 Z" id="Shape" fill="#154F7E"></path>
                        <path d="M46.4507869,26.2325462 L115.935736,26.2325462" id="Shape" stroke="#85766F" stroke-width="0.666728"></path>
                        <path d="M83.8168929,30.5831951 L80.6171291,26.4891158 L77.4182848,30.5831951 L83.8168929,30.5831951 L83.8168929,30.5831951 Z" id="Shape" fill="#85766F"></path>
                    </g>
                </g>
            </g>
        </g>
    </g>
</svg>