<svg xmlns="http://www.w3.org/2000/svg" viewBox="0 0 97.67 97.67"><defs><style>.cls-1{fill:#fff;}</style></defs><title>Asset 1</title><g id="Layer_2" data-name="Layer 2"><g id="Layer_1-2" data-name="Layer 1"><path class="cls-1" d="M78.13,0H19.53A19.53,19.53,0,0,0,0,19.53v58.6A19.53,19.53,0,0,0,19.53,97.67h58.6A19.53,19.53,0,0,0,97.67,78.14V19.53A19.53,19.53,0,0,0,78.13,0ZM75.31,69.42,29.45,75.21c-8.44,1.07-16-3.47-16.81-10.14L8.07,28.86c-.84-6.67,5.32-12.93,13.76-14L67.69,9.07c8.44-1.07,16,3.47,16.81,10.14l4.58,36.21C89.92,62.08,83.75,68.35,75.31,69.42Z"/><path class="cls-1" d="M21.95,53.21h-4.8V25.1h4.8V41.38h3A4.42,4.42,0,0,0,28.24,40a4.77,4.77,0,0,0,1.38-3.38V34.77h4.87v1.85a9.11,9.11,0,0,1-3.2,7.11,9.11,9.11,0,0,1,3.2,7.11v2.38H29.62V50.83a4.7,4.7,0,0,0-1.36-3.34A4.44,4.44,0,0,0,25,46.14h-3Z"/><path class="cls-1" d="M43.13,40.9a4.49,4.49,0,0,0-1.39,3.32v9h-4.8v-9a9.12,9.12,0,0,1,2.79-6.72,9.57,9.57,0,0,1,13.47,0A9.12,9.12,0,0,1,56,44.22v9h-4.8v-9a4.74,4.74,0,0,0-4.71-4.69A4.61,4.61,0,0,0,43.13,40.9Z"/><path class="cls-1" d="M73.51,30.68a2.72,2.72,0,0,1,.84-2,2.81,2.81,0,0,1,2-.82,2.85,2.85,0,0,1,2.84,2.84,2.82,2.82,0,0,1-.82,2,2.72,2.72,0,0,1-2,.84,2.85,2.85,0,0,1-2.88-2.88Zm.5,4.09h4.8V53.21H74Z"/><path class="cls-1" d="M60.86,42.23h8.05v4.23H60.86Z"/></g></g></svg>