<?xml version="1.0" encoding="iso-8859-1"?>
<!-- Generator: Adobe Illustrator 19.0.0, SVG Export Plug-In . SVG Version: 6.00 Build 0)  -->
<svg version="1.1" id="Layer_1" xmlns="http://www.w3.org/2000/svg" xmlns:xlink="http://www.w3.org/1999/xlink" x="0px" y="0px"
	 viewBox="0 0 512.002 512.002" style="enable-background:new 0 0 512.002 512.002;" xml:space="preserve">
<path style="fill:#C29178;" d="M335.734,137.463h0.006c-38.886-20.19,0.952-52.297,14.265-65.609h-0.001
	c6.808-6.759,11.027-16.122,11.027-26.473c0-20.601-16.699-37.301-37.301-37.301H188.273c-20.601,0-37.3,16.7-37.3,37.301
	c0,10.352,4.218,19.715,11.027,26.473H162c13.313,13.312,53.151,45.418,14.265,65.609h0.006
	C96.113,169.22,39.422,247.432,39.422,338.891c0,119.614,73.302,165.028,216.58,165.028s216.58-45.414,216.58-165.028
	C472.582,247.432,415.891,169.22,335.734,137.463z"/>
<circle style="fill:#FFC843;" cx="255.997" cy="309.805" r="129.672"/>
<circle style="fill:#FFFFFF;" cx="255.997" cy="309.805" r="98.356"/>
<path style="fill:#D49000;" d="M256.376,244.503c4.436,0,7.955,3.518,7.955,7.952v2.142c8.257,1.224,15.6,3.671,22.176,7.343
	c2.908,1.684,5.507,4.587,5.507,9.176c0,5.813-4.589,10.247-10.401,10.247c-1.835,0-3.67-0.459-5.353-1.375
	c-4.281-2.297-8.563-4.13-12.693-5.202v23.248c23.245,6.271,33.188,15.752,33.188,32.883c0,17.128-13.153,28.141-32.423,30.28v8.105
	c0,4.435-3.518,7.952-7.955,7.952c-4.434,0-7.95-3.517-7.95-7.952v-8.258c-10.861-1.377-21.108-5.199-30.131-10.704
	c-3.211-1.989-5.2-5.048-5.2-9.178c0-5.964,4.588-10.399,10.553-10.399c1.99,0,4.129,0.763,5.966,1.985
	c6.422,4.132,12.54,7.038,19.575,8.565v-24.316c-22.024-5.964-32.882-14.376-32.882-32.576c0-16.822,12.847-28.14,32.118-30.131
	v-1.835C248.426,248.022,251.942,244.503,256.376,244.503z M249.19,294.057v-20.648c-7.341,1.071-10.553,4.741-10.553,9.636
	C238.636,287.786,240.778,290.997,249.19,294.057z M263.567,320.82v21.261c7.187-1.072,10.858-4.437,10.858-9.942
	C274.424,327.09,271.826,323.726,263.567,320.82z"/>
<path style="opacity:0.2;enable-background:new    ;" d="M357.145,147.34c-6.924-3.663-14.068-6.967-21.412-9.877h0.006
	c-13.302-6.908-17.389-15.208-16.479-23.675H192.743c0.91,8.466-3.177,16.767-16.479,23.675h0.006
	c-7.343,2.91-14.487,6.214-21.412,9.877H357.145z"/>
<path style="fill:#333E48;" d="M327.584,133.943c11.132,0,20.156-9.022,20.156-20.155s-9.024-20.155-20.156-20.155H184.42
	c-11.132,0-20.156,9.022-20.156,20.155s9.024,20.155,20.156,20.155H327.584z"/>
<g>
	<rect x="247.917" y="93.637" style="fill:#5C6670;" width="16.159" height="40.31"/>
	<rect x="197.436" y="93.637" style="fill:#5C6670;" width="16.159" height="40.31"/>
	<rect x="298.409" y="93.637" style="fill:#5C6670;" width="16.159" height="40.31"/>
</g>
<path style="opacity:0.2;enable-background:new    ;" d="M184.42,93.633c-11.132,0-20.156,9.022-20.156,20.155
	s9.024,20.155,20.156,20.155h71.578v-40.31H184.42z"/>
<path style="fill:#1E252B;" d="M440.861,211.19c-23.595-34.092-55.703-60.729-93.273-77.496c5.085-5.108,8.233-12.146,8.233-19.907
	c0-9.925-5.153-18.664-12.918-23.7c2.875-2.969,5.767-5.733,8.33-8.18c1.632-1.557,3.174-3.028,4.465-4.32
	c8.651-8.587,13.414-20.025,13.414-32.208C369.11,20.357,348.753,0,323.731,0H188.273c-25.023,0-45.379,20.357-45.379,45.381
	c0,12.183,4.763,23.62,13.392,32.187c1.311,1.311,2.848,2.777,4.476,4.332c2.567,2.449,5.461,5.216,8.34,8.189
	c-7.765,5.036-12.918,13.775-12.918,23.7c0,7.76,3.148,14.798,8.233,19.907c-37.57,16.767-69.679,43.404-93.274,77.496
	c-26.038,37.622-39.801,81.781-39.801,127.701c0,61.825,18.938,105.628,57.893,133.908c36.336,26.377,90.885,39.2,166.767,39.2
	s130.431-12.822,166.767-39.2c38.957-28.281,57.893-72.083,57.893-133.908C480.662,292.971,466.898,248.812,440.861,211.19z
	 M167.692,66.119c-5.571-5.53-8.64-12.895-8.64-20.739c0-16.113,13.108-29.221,29.221-29.221h135.457
	c16.113,0,29.221,13.108,29.221,29.221c0,7.844-3.068,15.209-8.659,20.76c-1.207,1.207-2.637,2.57-4.209,4.07
	c-4.494,4.289-9.921,9.477-14.904,15.343H186.823c-4.981-5.864-10.407-11.051-14.899-15.338
	C170.352,68.713,168.92,67.348,167.692,66.119z M339.661,113.788c0,6.659-5.418,12.075-12.076,12.075H184.42
	c-6.659,0-12.076-5.417-12.076-12.075s5.418-12.075,12.076-12.075h143.164C334.243,101.713,339.661,107.129,339.661,113.788z
	 M413.275,459.723c-33.478,24.303-84.922,36.117-157.272,36.117S132.206,484.025,98.73,459.723
	c-34.471-25.024-51.228-64.549-51.228-120.831c0-42.619,12.77-83.598,36.929-118.505c23.611-34.114,56.398-60.191,94.816-75.412
	c0.335-0.133,0.66-0.288,0.975-0.464c0.511-0.287,2.454-1.382,4.258-2.489h143.045c1.804,1.105,3.748,2.202,4.259,2.489
	c0.315,0.177,0.64,0.332,0.975,0.464c38.418,15.221,71.205,41.298,94.816,75.412c24.159,34.907,36.929,75.886,36.929,118.505
	C464.503,395.174,447.745,434.699,413.275,459.723z M256.002,203.373c-58.686,0-106.43,47.744-106.43,106.43
	s47.744,106.43,106.43,106.43s106.43-47.744,106.43-106.43C362.432,251.118,314.688,203.373,256.002,203.373z M256.002,400.074
	c-49.776,0-90.271-40.495-90.271-90.271s40.495-90.271,90.271-90.271s90.271,40.495,90.271,90.271S305.778,400.074,256.002,400.074z
	 M256.002,172.05c-75.957,0-137.753,61.795-137.753,137.753s61.796,137.753,137.753,137.753s137.753-61.795,137.753-137.753
	S331.959,172.05,256.002,172.05z M256.002,431.397c-67.047,0-121.594-54.547-121.594-121.594s54.547-121.594,121.594-121.594
	s121.594,54.547,121.594,121.594S323.049,431.397,256.002,431.397z"/>
<g>
</g>
<g>
</g>
<g>
</g>
<g>
</g>
<g>
</g>
<g>
</g>
<g>
</g>
<g>
</g>
<g>
</g>
<g>
</g>
<g>
</g>
<g>
</g>
<g>
</g>
<g>
</g>
<g>
</g>
</svg>
