<?xml version="1.0" encoding="iso-8859-1"?>
<!-- Generator: Adobe Illustrator 19.0.0, SVG Export Plug-In . SVG Version: 6.00 Build 0)  -->
<svg version="1.1" id="Layer_1" xmlns="http://www.w3.org/2000/svg" xmlns:xlink="http://www.w3.org/1999/xlink" x="0px" y="0px"
	 viewBox="0 0 512 512" style="enable-background:new 0 0 512 512;" xml:space="preserve">
<path style="fill:#E0E0D3;" d="M457.441,25.315c0-9.282-7.594-16.876-16.876-16.876H71.435c-9.282,0-16.876,7.594-16.876,16.876
	v461.371c0,9.282,7.594,16.876,16.876,16.876h369.13c9.282,0,16.876-7.594,16.876-16.876V25.315z"/>
<path style="fill:#333E48;" d="M410.137,88.335H239.123c-4.66,0-8.438-3.778-8.438-8.438c0-4.661,3.778-8.438,8.438-8.438h171.014
	c4.66,0,8.438,3.777,8.438,8.438C418.575,84.557,414.797,88.335,410.137,88.335z"/>
<path style="fill:#5C6670;" d="M359.508,126.589H239.123c-4.66,0-8.438-3.778-8.438-8.438c0-4.661,3.778-8.438,8.438-8.438h120.385
	c4.66,0,8.438,3.777,8.438,8.438C367.946,122.811,364.168,126.589,359.508,126.589z"/>
<circle style="fill:#0055B8;" cx="150.413" cy="99.019" r="57.377"/>
<path style="fill:#FFFFFF;" d="M139.558,127.43c-2.238,0-4.384-0.889-5.966-2.472l-18.234-18.235c-3.295-3.295-3.295-8.638,0-11.933
	c3.295-3.294,8.638-3.295,11.933,0.001l12.268,12.268l31.719-31.72c3.295-3.294,8.638-3.294,11.933,0
	c3.295,3.297,3.295,8.638,0,11.933l-37.685,37.687C143.943,126.541,141.796,127.43,139.558,127.43z"/>
<path style="fill:#333E48;" d="M410.137,245.312H239.123c-4.66,0-8.438-3.777-8.438-8.438s3.778-8.438,8.438-8.438h171.014
	c4.66,0,8.438,3.777,8.438,8.438C418.575,241.535,414.797,245.312,410.137,245.312z"/>
<path style="fill:#5C6670;" d="M359.508,283.565H239.123c-4.66,0-8.438-3.777-8.438-8.438c0-4.661,3.778-8.438,8.438-8.438h120.385
	c4.66,0,8.438,3.777,8.438,8.438C367.946,279.788,364.168,283.565,359.508,283.565z"/>
<circle style="fill:#D49000;" cx="150.413" cy="256.003" r="57.377"/>
<path style="fill:#333E48;" d="M410.137,402.288H239.123c-4.66,0-8.438-3.777-8.438-8.438c0-4.66,3.778-8.438,8.438-8.438h171.014
	c4.66,0,8.438,3.778,8.438,8.438C418.575,398.511,414.797,402.288,410.137,402.288z"/>
<path style="fill:#5C6670;" d="M359.508,440.541H239.123c-4.66,0-8.438-3.777-8.438-8.438c0-4.66,3.778-8.438,8.438-8.438h120.385
	c4.66,0,8.438,3.778,8.438,8.438C367.946,436.764,364.168,440.541,359.508,440.541z"/>
<circle style="fill:#D49000;" cx="150.413" cy="412.976" r="57.377"/>
<path style="fill:#1E252B;" d="M440.565,512H71.435c-13.959,0-25.315-11.357-25.315-25.315V25.315C46.12,11.357,57.476,0,71.435,0
	h369.13c13.959,0,25.315,11.357,25.315,25.315v461.371C465.88,500.643,454.523,512,440.565,512z M71.435,16.876
	c-4.652,0-8.438,3.785-8.438,8.438v461.371c0,4.653,3.786,8.438,8.438,8.438h369.13c4.652,0,8.438-3.785,8.438-8.438V25.315
	c0-4.653-3.786-8.438-8.438-8.438H71.435z"/>
<g>
</g>
<g>
</g>
<g>
</g>
<g>
</g>
<g>
</g>
<g>
</g>
<g>
</g>
<g>
</g>
<g>
</g>
<g>
</g>
<g>
</g>
<g>
</g>
<g>
</g>
<g>
</g>
<g>
</g>
</svg>
