<svg id="Layer_1" data-name="Layer 1" xmlns="http://www.w3.org/2000/svg" viewBox="0 0 250 250"><defs><style>.cls-1,.cls-2{fill:none;stroke:#000;}.cls-1{stroke-miterlimit:10;stroke-width:11px;}.cls-2{stroke-linecap:round;stroke-linejoin:round;stroke-width:8px;}</style></defs><title>journey-icon3</title><path class="cls-1" d="M107.44,55C46.11,79-25.89,245,125.78,245S200.13,77.16,146.11,55Z"/><line class="cls-2" x1="109.69" y1="41.75" x2="140.31" y2="41.75"/><path d="M125,14.56a65.85,65.85,0,0,1,17.8,2.06c-2.38,4.48-9,8.46-17.8,8.46s-15.43-4-17.8-8.46A65.85,65.85,0,0,1,125,14.56m0-11c-14.87,0-29.75,3.18-29.75,9.53,0,12.7,13.32,23,29.75,23s29.75-10.3,29.75-23c0-6.35-14.87-9.53-29.75-9.53Z"/><path d="M160.67,183.89a5.72,5.72,0,0,1,3.2,3.07,5.43,5.43,0,0,1,0,4.4,25,25,0,0,1-6.27,9.4,22.52,22.52,0,0,1-9.07,5.13,24.42,24.42,0,0,1-12.27-.2,33.19,33.19,0,0,1-12.13-6.33q-5.73-4.8-11.87-3.73a14.14,14.14,0,0,0-6.33,2.8,21.79,21.79,0,0,0-5.27,5.87,5.49,5.49,0,0,1-4.93,2.8,7.28,7.28,0,0,1-3.07-.93,5.81,5.81,0,0,1-2.53-3.67,5.35,5.35,0,0,1,.8-4.33A44.37,44.37,0,0,1,94,194a28.94,28.94,0,0,1,3.47-3.53v-29.2H89.6a5.42,5.42,0,0,1-4.07-1.73,5.75,5.75,0,0,1-1.67-4.13,5.69,5.69,0,0,1,5.73-5.73h7.87v-20.4a21.72,21.72,0,0,1,2.2-9.6,23.52,23.52,0,0,1,6.47-8,24.94,24.94,0,0,1,7.73-4.47,24.06,24.06,0,0,1,8.13-1.53q7.47,0,12,2.4a24.52,24.52,0,0,1,6.8,4.93,22,22,0,0,1,4.13,6.53,19.29,19.29,0,0,1,1.47,7.33,5.92,5.92,0,0,1-5.87,5.87,5.42,5.42,0,0,1-4.07-1.73,5.75,5.75,0,0,1-1.67-4.13,9.69,9.69,0,0,0-.53-2.87,7.85,7.85,0,0,0-2-3.13q-3.2-3.6-10.27-3.6a12.56,12.56,0,0,0-3.93.8,16.32,16.32,0,0,0-4.6,2.53,19.9,19.9,0,0,0-2.93,3.47,9,9,0,0,0-1.47,5.2v20.4h13.87a5.76,5.76,0,0,1,4.13,1.67,5.43,5.43,0,0,1,1.73,4.07,5.92,5.92,0,0,1-5.87,5.87H109.07v23.2a4.27,4.27,0,0,1,1.2-.27q11.07-1.87,21.2,6.13a22.19,22.19,0,0,0,7.27,4,11.45,11.45,0,0,0,6.87.27q5.07-1.2,7.47-7.47a5.69,5.69,0,0,1,3.13-3.2A5.59,5.59,0,0,1,160.67,183.89Z"/></svg>