<?xml version="1.0" encoding="iso-8859-1"?>
<!-- Generator: Adobe Illustrator 19.0.0, SVG Export Plug-In . SVG Version: 6.00 Build 0)  -->
<svg version="1.1" id="Layer_1" xmlns="http://www.w3.org/2000/svg" xmlns:xlink="http://www.w3.org/1999/xlink" x="0px" y="0px"
	 viewBox="0 0 511.999 511.999" style="enable-background:new 0 0 511.999 511.999;" xml:space="preserve">
<path id="SVGCleanerId_0" style="fill:#FFC843;" d="M313.899,329.186c0-47.072,86.086-73.839,86.086-177.212
	c0-79.521-64.464-143.987-143.986-143.987S112.014,72.453,112.014,151.974c0,103.373,86.089,130.14,86.089,177.212H313.899z"/>
<g>
	<path id="SVGCleanerId_0_1_" style="fill:#FFC843;" d="M313.899,329.186c0-47.072,86.086-73.839,86.086-177.212
		c0-79.521-64.464-143.987-143.986-143.987S112.014,72.453,112.014,151.974c0,103.373,86.089,130.14,86.089,177.212H313.899z"/>
</g>
<g>
	<path style="fill:#D49000;" d="M228.112,337.173c-4.412,0-7.987-3.576-7.987-7.987c0-41.387-11.914-59.347-24.526-78.36
		c-11.714-17.658-23.827-35.918-23.827-71.475c0-4.411,3.575-7.987,7.987-7.987c4.412,0,7.987,3.576,7.987,7.987
		c0,30.741,9.808,45.525,21.164,62.645c12.745,19.212,27.189,40.987,27.189,87.191C236.099,333.597,232.524,337.173,228.112,337.173
		z"/>
	<path style="fill:#D49000;" d="M283.886,337.173c-4.412,0-7.987-3.576-7.987-7.987c0-46.204,14.445-67.979,27.189-87.191
		c11.356-17.119,21.164-31.904,21.164-62.645c0-4.411,3.575-7.987,7.987-7.987s7.987,3.576,7.987,7.987
		c0,35.558-12.113,53.817-23.827,71.475c-12.613,19.014-24.526,36.973-24.526,78.36
		C291.873,333.597,288.298,337.173,283.886,337.173z"/>
</g>
<path style="fill:#FFFFFF;" d="M282.042,216.189c-2.419,0-4.708-1.097-6.225-2.982l-19.818-24.644l-19.818,24.644
	c-1.516,1.885-3.805,2.982-6.225,2.982l0,0c-2.419,0-4.708-1.097-6.225-2.982l-26.041-32.383c-2.765-3.438-2.218-8.465,1.219-11.23
	c3.439-2.764,8.465-2.218,11.23,1.219l19.817,24.644l19.818-24.644c1.516-1.885,3.805-2.982,6.225-2.982
	c2.42,0,4.708,1.097,6.225,2.982l19.818,24.644l19.817-24.644c2.765-3.437,7.791-3.984,11.23-1.219
	c3.438,2.765,3.983,7.792,1.219,11.23l-26.041,32.383C286.75,215.093,284.46,216.189,282.042,216.189z"/>
<path style="opacity:0.1;enable-background:new    ;" d="M192.907,309.139c3.265,6.445,5.195,13.02,5.195,20.047h115.796
	c0-7.028,1.93-13.603,5.195-20.047H192.907z"/>
<circle style="fill:#5C6670;" cx="256.003" cy="484.383" r="19.631"/>
<path style="opacity:0.1;enable-background:new    ;" d="M255.999,464.75c-10.844,0-19.631,8.789-19.631,19.631
	c0,0.869,0.076,1.719,0.185,2.558c6.132,1.964,12.663,3.033,19.446,3.033c6.783,0,13.314-1.07,19.446-3.033
	c0.11-0.839,0.185-1.689,0.185-2.558C275.63,473.539,266.843,464.75,255.999,464.75z"/>
<circle style="fill:#333E48;" cx="256.003" cy="426.258" r="58.125"/>
<path style="opacity:0.1;enable-background:new    ;" d="M255.999,368.134c-32.102,0-58.124,26.024-58.124,58.124
	c0,4.221,0.461,8.332,1.316,12.298h113.615c0.856-3.966,1.316-8.077,1.316-12.298C314.123,394.157,288.099,368.134,255.999,368.134z
	"/>
<path style="fill:#5C6670;" d="M338.428,406.592c0,10.816-8.85,19.665-19.664,19.665H193.237c-10.816,0-19.665-8.849-19.665-19.665
	v-61.087c0-10.816,8.85-19.665,19.665-19.665h125.527c10.815,0,19.664,8.85,19.664,19.665V406.592z"/>
<g>
	<rect x="173.575" y="349.23" style="fill:#333E48;" width="164.855" height="15.974"/>
	<rect x="173.575" y="386.897" style="fill:#333E48;" width="164.855" height="15.974"/>
</g>
<path style="fill:#1E252B;" d="M407.972,151.974C407.972,68.175,339.797,0,255.999,0S104.027,68.175,104.027,151.974
	c0,64.767,31.855,100.484,57.45,129.181c12.37,13.87,22.626,25.369,26.724,37.166c-12.85,2.376-22.615,13.658-22.615,27.184v61.087
	c0,14.279,10.88,26.065,24.784,27.503c2.76,23.244,17.617,42.817,38.09,52.239c1.006,14.32,12.97,25.665,27.541,25.665
	s26.534-11.345,27.541-25.665c20.472-9.423,35.33-28.995,38.09-52.239c13.906-1.439,24.785-13.225,24.785-27.503v-61.087
	c0-13.526-9.765-24.807-22.612-27.184c4.097-11.796,14.353-23.297,26.723-37.167C376.12,252.456,407.972,216.74,407.972,151.974z
	 M255.999,496.026c-3.631,0-6.88-1.674-9.017-4.289c2.951,0.404,5.957,0.63,9.017,0.63s6.066-0.227,9.017-0.63
	C262.879,494.353,259.631,496.026,255.999,496.026z M255.999,476.394c-24.927,0-45.656-18.287-49.494-42.15h98.986
	C301.655,458.106,280.927,476.394,255.999,476.394z M330.441,345.505v61.087c0,6.439-5.238,11.678-11.677,11.678H193.237
	c-6.44,0-11.678-5.238-11.678-11.678v-61.087c0-6.439,5.239-11.678,11.678-11.678h125.527
	C325.202,333.827,330.441,339.066,330.441,345.505z M307.296,317.853H204.707c-4.111-16.834-16.844-31.114-31.309-47.331
	c-23.79-26.674-53.398-59.869-53.398-118.548c0-74.991,61.009-136,135.999-136s135.999,61.009,135.999,136
	c0,58.678-29.607,91.874-53.396,118.548C324.139,286.739,311.406,301.019,307.296,317.853z"/>
<g>
</g>
<g>
</g>
<g>
</g>
<g>
</g>
<g>
</g>
<g>
</g>
<g>
</g>
<g>
</g>
<g>
</g>
<g>
</g>
<g>
</g>
<g>
</g>
<g>
</g>
<g>
</g>
<g>
</g>
</svg>
