<svg id="Layer_1" data-name="Layer 1" xmlns="http://www.w3.org/2000/svg" viewBox="0 0 250 250"><title>journey-icon2</title><path d="M194.07,38.45a6,6,0,0,0,6-6v-19A13.18,13.18,0,0,0,186.92.25H59.53A6,6,0,0,0,55.27,2L5.38,51.9a6,6,0,0,0-1.76,4.26V236.57a13.19,13.19,0,0,0,13.17,13.17H186.92a13.18,13.18,0,0,0,13.16-13.17V144.63a6,6,0,1,0-12,0v91.94a1.12,1.12,0,0,1-1.12,1.13H16.79a1.13,1.13,0,0,1-1.13-1.13V62.19H52.39A13.18,13.18,0,0,0,65.55,49V12.3H186.92A1.12,1.12,0,0,1,188,13.42v19A6,6,0,0,0,194.07,38.45ZM53.51,49a1.12,1.12,0,0,1-1.12,1.12H24.18L53.51,20.82Z"/><path d="M240.42,49.18l-7.09-7.08a20.4,20.4,0,0,0-28.82,0L148.27,98.34H50.72a6,6,0,1,0,0,12h85.51L100,146.62H50.72a6,6,0,0,0,0,12H87.94l-.1.1a6,6,0,0,0-1.54,2.65L77,194.91H50.72a6,6,0,1,0,0,12H81.58s1.32-.15,1.51-.2l38-10.55a6,6,0,0,0,2.65-1.54L240.42,78A20.4,20.4,0,0,0,240.42,49.18ZM90.23,192.28l4.92-17.7,12.79,12.79Zm29.26-10.39L100.62,163l96.31-96.31L215.8,85.58ZM231.9,69.48l-7.59,7.59L205.45,58.19,213,50.61a8.34,8.34,0,0,1,11.78,0l7.09,7.09A8.34,8.34,0,0,1,231.9,69.48Z"/></svg>